<svg width="201" height="41" viewBox="0 0 201 41" fill="none" xmlns="http://www.w3.org/2000/svg">
<path d="M60.632 30.216C59.32 30.216 58.088 30.04 56.936 29.688C55.8 29.336 54.832 28.832 54.032 28.176L55.088 25.92C55.92 26.544 56.784 27.008 57.68 27.312C58.592 27.6 59.584 27.744 60.656 27.744C61.84 27.744 62.752 27.536 63.392 27.12C64.048 26.704 64.376 26.12 64.376 25.368C64.376 24.728 64.072 24.24 63.464 23.904C62.872 23.552 61.888 23.224 60.512 22.92C58.368 22.456 56.808 21.856 55.832 21.12C54.856 20.384 54.368 19.312 54.368 17.904C54.368 16.896 54.64 16 55.184 15.216C55.728 14.432 56.496 13.816 57.488 13.368C58.496 12.92 59.656 12.696 60.968 12.696C62.168 12.696 63.304 12.88 64.376 13.248C65.464 13.6 66.352 14.096 67.04 14.736L66.008 16.992C64.488 15.776 62.808 15.168 60.968 15.168C59.864 15.168 58.992 15.4 58.352 15.864C57.712 16.312 57.392 16.928 57.392 17.712C57.392 18.384 57.672 18.896 58.232 19.248C58.808 19.6 59.784 19.928 61.16 20.232C62.584 20.568 63.744 20.936 64.64 21.336C65.536 21.72 66.224 22.224 66.704 22.848C67.184 23.456 67.424 24.224 67.424 25.152C67.424 26.176 67.152 27.072 66.608 27.84C66.064 28.592 65.28 29.176 64.256 29.592C63.232 30.008 62.024 30.216 60.632 30.216ZM81.6693 17.88V30H78.7173V28.056C78.3493 28.728 77.8213 29.256 77.1333 29.64C76.4453 30.008 75.6613 30.192 74.7813 30.192C73.7253 30.192 72.7893 29.936 71.9733 29.424C71.1573 28.912 70.5253 28.184 70.0773 27.24C69.6293 26.296 69.4053 25.2 69.4053 23.952C69.4053 22.704 69.6293 21.6 70.0773 20.64C70.5413 19.664 71.1813 18.912 71.9973 18.384C72.8133 17.84 73.7413 17.568 74.7813 17.568C75.6613 17.568 76.4453 17.76 77.1333 18.144C77.8213 18.512 78.3493 19.032 78.7173 19.704V17.88H81.6693ZM75.5973 27.84C76.5893 27.84 77.3573 27.496 77.9013 26.808C78.4453 26.12 78.7173 25.152 78.7173 23.904C78.7173 22.624 78.4453 21.64 77.9013 20.952C77.3573 20.264 76.5813 19.92 75.5733 19.92C74.5813 19.92 73.8053 20.28 73.2453 21C72.7013 21.704 72.4293 22.688 72.4293 23.952C72.4293 25.2 72.7013 26.16 73.2453 26.832C73.8053 27.504 74.5893 27.84 75.5973 27.84ZM96.4087 17.904L91.1047 30H88.4887L83.2567 17.904H86.4007L89.8807 26.592L93.4327 17.904H96.4087ZM97.9679 17.88H100.944V30H97.9679V17.88ZM101.112 12.384V15.336H97.7759V12.384H101.112ZM109.722 30.192C108.49 30.192 107.402 29.936 106.458 29.424C105.53 28.912 104.81 28.184 104.298 27.24C103.802 26.28 103.554 25.16 103.554 23.88C103.554 22.6 103.802 21.488 104.298 20.544C104.81 19.584 105.53 18.848 106.458 18.336C107.402 17.824 108.49 17.568 109.722 17.568C110.938 17.568 112.01 17.824 112.938 18.336C113.866 18.848 114.578 19.584 115.074 20.544C115.586 21.488 115.842 22.6 115.842 23.88C115.842 25.16 115.586 26.28 115.074 27.24C114.578 28.184 113.866 28.912 112.938 29.424C112.01 29.936 110.938 30.192 109.722 30.192ZM109.698 27.84C110.722 27.84 111.498 27.512 112.026 26.856C112.57 26.184 112.842 25.192 112.842 23.88C112.842 22.584 112.57 21.6 112.026 20.928C111.482 20.24 110.714 19.896 109.722 19.896C108.714 19.896 107.938 20.24 107.394 20.928C106.85 21.6 106.578 22.584 106.578 23.88C106.578 25.192 106.842 26.184 107.37 26.856C107.914 27.512 108.69 27.84 109.698 27.84ZM129.469 17.88V30H126.541V28.128C126.157 28.8 125.645 29.312 125.005 29.664C124.365 30.016 123.629 30.192 122.797 30.192C119.837 30.192 118.357 28.528 118.357 25.2V17.88H121.333V25.224C121.333 26.104 121.509 26.752 121.861 27.168C122.229 27.584 122.789 27.792 123.541 27.792C124.421 27.792 125.125 27.504 125.653 26.928C126.181 26.352 126.445 25.584 126.445 24.624V17.88H129.469ZM139.254 17.592C139.718 17.592 140.118 17.656 140.454 17.784L140.43 20.52C139.918 20.312 139.39 20.208 138.846 20.208C137.822 20.208 137.038 20.504 136.494 21.096C135.966 21.688 135.702 22.472 135.702 23.448V30H132.726V21.312C132.726 20.032 132.662 18.888 132.534 17.88H135.342L135.582 20.016C135.886 19.232 136.366 18.632 137.022 18.216C137.678 17.8 138.422 17.592 139.254 17.592ZM156.678 30.216C154.998 30.216 153.526 29.856 152.262 29.136C151.014 28.416 150.054 27.4 149.382 26.088C148.71 24.76 148.374 23.208 148.374 21.432C148.374 19.672 148.71 18.136 149.382 16.824C150.054 15.496 151.014 14.48 152.262 13.776C153.526 13.056 154.998 12.696 156.678 12.696C157.83 12.696 158.91 12.88 159.918 13.248C160.942 13.6 161.79 14.096 162.462 14.736L161.454 16.992C160.686 16.368 159.918 15.92 159.15 15.648C158.398 15.36 157.59 15.216 156.726 15.216C155.078 15.216 153.798 15.752 152.886 16.824C151.99 17.896 151.542 19.432 151.542 21.432C151.542 23.448 151.99 25 152.886 26.088C153.782 27.16 155.062 27.696 156.726 27.696C157.59 27.696 158.398 27.56 159.15 27.288C159.918 27 160.686 26.544 161.454 25.92L162.462 28.176C161.79 28.816 160.942 29.32 159.918 29.688C158.91 30.04 157.83 30.216 156.678 30.216ZM176.497 17.88V30H173.545V28.056C173.177 28.728 172.649 29.256 171.961 29.64C171.273 30.008 170.489 30.192 169.609 30.192C168.553 30.192 167.617 29.936 166.801 29.424C165.985 28.912 165.353 28.184 164.905 27.24C164.457 26.296 164.233 25.2 164.233 23.952C164.233 22.704 164.457 21.6 164.905 20.64C165.369 19.664 166.009 18.912 166.825 18.384C167.641 17.84 168.569 17.568 169.609 17.568C170.489 17.568 171.273 17.76 171.961 18.144C172.649 18.512 173.177 19.032 173.545 19.704V17.88H176.497ZM170.425 27.84C171.417 27.84 172.185 27.496 172.729 26.808C173.273 26.12 173.545 25.152 173.545 23.904C173.545 22.624 173.273 21.64 172.729 20.952C172.185 20.264 171.409 19.92 170.401 19.92C169.409 19.92 168.633 20.28 168.073 21C167.529 21.704 167.257 22.688 167.257 23.952C167.257 25.2 167.529 26.16 168.073 26.832C168.633 27.504 169.417 27.84 170.425 27.84ZM186.293 17.592C186.757 17.592 187.157 17.656 187.493 17.784L187.469 20.52C186.957 20.312 186.429 20.208 185.885 20.208C184.861 20.208 184.077 20.504 183.533 21.096C183.005 21.688 182.741 22.472 182.741 23.448V30H179.765V21.312C179.765 20.032 179.701 18.888 179.573 17.88H182.381L182.621 20.016C182.925 19.232 183.405 18.632 184.061 18.216C184.717 17.8 185.461 17.592 186.293 17.592ZM199.537 24.096H191.185C191.249 25.392 191.569 26.352 192.145 26.976C192.737 27.584 193.609 27.888 194.761 27.888C196.089 27.888 197.321 27.456 198.457 26.592L199.321 28.656C198.745 29.12 198.033 29.496 197.185 29.784C196.353 30.056 195.505 30.192 194.641 30.192C192.657 30.192 191.097 29.632 189.961 28.512C188.825 27.392 188.257 25.856 188.257 23.904C188.257 22.672 188.505 21.576 189.001 20.616C189.497 19.656 190.193 18.912 191.089 18.384C191.985 17.84 193.001 17.568 194.137 17.568C195.801 17.568 197.113 18.112 198.073 19.2C199.049 20.272 199.537 21.752 199.537 23.64V24.096ZM194.209 19.728C193.409 19.728 192.753 19.968 192.241 20.448C191.745 20.912 191.425 21.592 191.281 22.488H196.921C196.825 21.576 196.545 20.888 196.081 20.424C195.633 19.96 195.009 19.728 194.209 19.728Z" fill="#462E6A"/>
<circle cx="20.5" cy="20.5" r="20.5" fill="#DEEEFE"/>
</svg>
